<?xml version="1.0" standalone="no"?>
<!DOCTYPE svg PUBLIC "-//W3C//DTD SVG 20010904//EN"
 "http://www.w3.org/TR/2001/REC-SVG-20010904/DTD/svg10.dtd">
<svg version="1.0" xmlns="http://www.w3.org/2000/svg"
 width="851.000000pt" height="315.000000pt" viewBox="0 0 851.000000 315.000000"
 preserveAspectRatio="xMidYMid meet">
<metadata>
Created by potrace 1.16, written by Peter Selinger 2001-2019
</metadata>
<g transform="translate(0.000000,315.000000) scale(0.100000,-0.100000)"
fill="#000000" stroke="none">
<path d="M2720 1610 l0 -320 45 0 45 0 0 140 0 140 135 0 135 0 0 -140 0 -140
45 0 45 0 0 320 0 320 -45 0 -45 0 0 -140 0 -140 -135 0 -135 0 0 140 0 140
-45 0 -45 0 0 -320z"/>
<path d="M3210 1885 l0 -45 60 0 60 0 0 -230 0 -230 -60 0 -60 0 0 -45 0 -45
165 0 165 0 0 45 0 45 -60 0 -60 0 0 230 0 230 60 0 60 0 0 45 0 45 -165 0
-165 0 0 -45z"/>
<path d="M3780 1921 c-90 -29 -165 -95 -202 -179 -31 -69 -31 -198 1 -270 32
-70 115 -146 183 -167 188 -56 387 62 405 240 l6 55 -172 0 -171 0 0 -45 0
-45 120 0 c66 0 120 -4 120 -9 0 -4 -18 -29 -41 -55 -72 -82 -186 -97 -282
-36 -152 96 -135 337 28 411 105 48 268 -7 291 -98 5 -20 13 -23 56 -23 47 0
49 1 42 23 -38 124 -141 198 -284 203 -41 2 -86 0 -100 -5z"/>
<path d="M4220 1610 l0 -320 45 0 45 0 0 140 0 140 135 0 135 0 0 -140 0 -140
45 0 45 0 0 320 0 320 -45 0 -45 0 0 -140 0 -140 -135 0 -135 0 0 140 0 140
-45 0 -45 0 0 -320z"/>
<path d="M1751 1894 c-175 -47 -322 -194 -375 -373 -9 -30 -16 -72 -16 -93 l0
-38 100 0 c82 0 100 -3 100 -15 0 -12 -18 -15 -100 -15 l-100 0 0 -38 c0 -98
67 -239 155 -327 105 -105 229 -155 385 -155 156 0 280 50 385 155 105 105
155 227 155 380 0 54 -6 113 -16 146 -53 181 -202 327 -379 374 -74 19 -222
19 -294 -1z m23 -111 c11 -15 23 -46 26 -70 l7 -43 -91 0 c-70 0 -87 3 -78 12
7 7 12 25 12 41 0 16 8 42 17 58 24 40 79 41 107 2z m-14 -273 l0 -120 125 0
125 0 0 120 0 120 45 0 45 0 0 -245 0 -245 70 0 70 0 0 -35 0 -35 -115 0 -115
0 0 115 0 115 -125 0 -125 0 0 -125 0 -125 -40 0 -40 0 0 290 0 290 40 0 40 0
0 -120z"/>
</g>
</svg>
